PathFileType	4	(X/Y/Z)	./resultDataOpenSim/trcMotMarkerGrf/sub06/qtm-02-06.trc
DataRate	CameraRate	NumFrames	NumMarkers	Units	OrigDataRate	OrigDataStartFrame	OrigNumFrames
250.000000	250.000000	15	24	m	250.000000	1	497
Frame#	Time	L.Toe.Tip			R.Toe.Tip			L.Ankle.Lat			R.Ankle.Lat			L.Ankle.Med			R.Ankle.Med			L.Heel			R.Heel			L.Knee.Lat			R.Knee.Lat			L.Knee.Med			R.Knee.Med			L.Thigh.Upper			R.Thigh.Upper			L.ASIS			R.ASIS			V.Sacral			L.Acromium			R.Acromium			C7			L.Elbow			R.Elbow			L.Wrist.Lat			R.Wrist.Lat
		X1	Y1	Z1	X2	Y2	Z2	X3	Y3	Z3	X4	Y4	Z4	X5	Y5	Z5	X6	Y6	Z6	X7	Y7	Z7	X8	Y8	Z8	X9	Y9	Z9	X10	Y10	Z10	X11	Y11	Z11	X12	Y12	Z12	X13	Y13	Z13	X14	Y14	Z14	X15	Y15	Z15	X16	Y16	Z16	X17	Y17	Z17	X18	Y18	Z18	X19	Y19	Z19	X20	Y20	Z20	X21	Y21	Z21	X22	Y22	Z22	X23	Y23	Z23	X24	Y24	Z24

1	0	-1.559396	0.03167173	-0.097136626	-0.9902674	0.097711547	0.12265979	-1.6799913	0.076505028	-0.11308678	-1.1194827	0.080499903	0.12486861	-1.6714762	0.088966425	-0.029192748	-1.101075	0.10999208	0.042352108	NaN	NaN	NaN	-1.1549684	0.040680536	0.050614316	-1.5181274	0.41404643	-0.12664944	-1.2150117	0.4582428	0.13135159	-1.5359755	0.41724521	-0.007148344	-1.2240626	0.43662254	0.0030031344	-1.4182468	0.78889881	-0.19122676	-1.4087846	0.78164294	0.1606315	-1.335597	0.82823696	-0.14559894	-1.3232484	0.83463028	0.099159835	-1.5070978	0.91184759	-0.010517547	-1.3562782	1.3227949	-0.1882512	-1.3855499	1.2943049	0.17233441	-1.4447421	1.3500114	-0.011136032	-1.3725641	1.0035976	-0.27272232	-1.5142625	1.0015451	0.21007959	-1.1716894	0.85962916	-0.22779206	-1.3976844	0.78554974	0.24748962
2	0.004	-1.5594809	0.031646787	-0.097110849	-0.97552548	0.10260589	0.1225251	-1.6796115	0.077203479	-0.1132195	-1.1046907	0.081588493	0.12587049	-1.670548	0.089715525	-0.029364767	-1.0874893	0.11129775	0.042987165	NaN	NaN	NaN	-1.1394962	0.040604335	0.051877931	-1.5147441	0.41346851	-0.12676635	-1.208935	0.45661824	0.13120884	-1.5326134	0.41639949	-0.0072011014	-1.2175085	0.43483045	0.0025828667	-1.413474	0.78771151	-0.19095591	-1.4017305	0.77976849	0.16088775	-1.3301772	0.82672869	-0.14574783	-1.3166343	0.83281794	0.099223406	-1.5009024	0.91051513	-0.0096916547	-1.350401	1.3210747	-0.18799353	-1.3798414	1.2924809	0.17281408	-1.4386721	1.3486569	-0.010561266	-1.3651705	1.0016584	-0.27238045	-1.5084519	0.9994258	0.21003409	-1.163579	0.85907793	-0.22647078	-1.3928957	0.78348113	0.24795449
3	0.008	-1.5597096	0.03161542	-0.096959901	-0.96122445	0.10742301	0.12238398	-1.6792187	0.07795145	-0.11336368	-1.0903247	0.082685019	0.12668583	-1.669645	0.090499247	-0.029536123	-1.0742222	0.11260873	0.043546529	NaN	NaN	NaN	-1.1243416	0.040568747	0.052971128	-1.5112972	0.41288105	-0.12687129	-1.2027218	0.45510293	0.13108455	-1.5288788	0.41557257	-0.007289768	-1.2109483	0.43309276	0.002181903	-1.4086746	0.78646508	-0.19055894	-1.3946892	0.77790554	0.16111294	-1.3247343	0.82521885	-0.14591791	-1.3099583	0.83103533	0.099266172	-1.4946515	0.90917558	-0.0086545685	-1.3445123	1.3193684	-0.1877091	-1.3741203	1.290645	0.17330691	-1.4326177	1.3472872	-0.010066113	-1.3577647	0.99974202	-0.27201432	-1.5025897	0.99722513	0.20993077	-1.1555336	0.85851905	-0.22516705	-1.3880776	0.78143613	0.2484432
4	0.012	-1.559982	0.031573873	-0.09676548	-0.94771433	0.11198534	0.122322	-1.6787703	0.078765364	-0.11351339	-1.076619	0.083769543	0.1272461	-1.6687152	0.091310845	-0.029719713	-1.0614409	0.11391857	0.043976895	NaN	NaN	NaN	-1.1097334	0.040588559	0.053761491	-1.5077208	0.41227823	-0.12696673	-1.1963113	0.45375835	0.13098064	-1.5247697	0.41475811	-0.0074028242	-1.2043716	0.43143395	0.00180312	-1.4038429	0.78514398	-0.18992246	-1.3876694	0.77605907	0.16131846	-1.3192845	0.82371383	-0.14616812	-1.3031975	0.8292947	0.099279942	-1.4883132	0.90782709	-0.0073270831	-1.338602	1.3176933	-0.18739249	-1.3683788	1.2888181	0.17381817	-1.4265751	1.3458988	-0.009665482	-1.3503383	0.99786169	-0.27160212	-1.4966708	0.99488452	0.20975754	-1.1475797	0.85794518	-0.22389161	-1.3832127	0.77942825	0.24896415
5	0.016	-1.5601489	0.031524972	-0.096652201	-0.93512456	0.11611448	0.1223759	-1.6782112	0.079628352	-0.11365669	-1.0636472	0.084790296	0.12757023	-1.6677419	0.092136646	-0.029922642	-1.0491938	0.11519535	0.044249609	NaN	NaN	NaN	-1.0958287	0.04066762	0.054222001	-1.5039756	0.41165901	-0.12706245	-1.1897444	0.45257804	0.13088753	-1.5204502	0.41394125	-0.007512677	-1.1977761	0.42986336	0.0014400812	-1.3990072	0.7838108	-0.18903794	-1.3806725	0.774233	0.16152166	-1.3138574	0.8222282	-0.14654673	-1.2963729	0.8275934	0.099272506	-1.4819098	0.90648286	-0.0057936024	-1.332672	1.31607	-0.18705181	-1.3626252	1.2870465	0.17434647	-1.4205322	1.3445084	-0.0093025556	-1.3429088	0.99602258	-0.27113229	-1.4906846	0.99239229	0.20956756	-1.1397243	0.85734402	-0.22265411	-1.3783178	0.77747025	0.24950877
6	0.02	-1.5601993	0.031477017	-0.09662887	-0.92335812	0.1197137	0.12245594	-1.6775277	0.080527866	-0.11380006	-1.0513927	0.085685757	0.12768526	-1.6668245	0.093000418	-0.030130873	-1.0374854	0.11637772	0.044357525	NaN	NaN	NaN	-1.0827224	0.040795414	0.05442408	-1.5000521	0.41102259	-0.12716779	-1.183079	0.45151411	0.13080934	-1.5159922	0.4131104	-0.0076129007	-1.1911511	0.42839006	0.001096094	-1.394163	0.782543	-0.18806975	-1.3736452	0.77243803	0.16172062	-1.308414	0.8207669	-0.14700039	-1.2895094	0.82592177	0.099253036	-1.4754869	0.90516028	-0.0042184563	-1.3267183	1.3145115	-0.18668799	-1.3568582	1.2853605	0.17489262	-1.414467	1.3431396	-0.0089009263	-1.335498	0.99422482	-0.27059846	-1.4845538	0.98989162	0.20954429	-1.1319491	0.85670661	-0.2214548	-1.3734183	0.77556869	0.25006791
7	0.024	-1.5601899	0.031437433	-0.096646152	-0.9122684	0.12272416	0.12244244	-1.6767455	0.08147911	-0.11397098	-1.0398023	0.086407792	0.12761997	-1.666057	0.093934416	-0.030327457	-1.0263319	0.11739434	0.044309517	NaN	NaN	NaN	-1.0704412	0.040933233	0.05444439	-1.4959549	0.4103675	-0.12729004	-1.1763201	0.45052508	0.13077282	-1.5113907	0.41226414	-0.007712114	-1.1844781	0.42702294	0.00079333839	-1.3892423	0.78134501	-0.18723974	-1.3665413	0.77069003	0.16191331	-1.302867	0.81932933	-0.14739758	-1.2826216	0.82427225	0.099217862	-1.4690765	0.90386382	-0.0027506351	-1.3207329	1.3130217	-0.18629013	-1.3510593	1.2837566	0.17545916	-1.4083633	1.3418077	-0.0084202379	-1.3281187	0.992475	-0.2699926	-1.4781752	0.98763906	0.20993884	-1.1242313	0.8560428	-0.22028232	-1.3685072	0.77372267	0.25064069
8	0.028	-1.5601594	0.031409133	-0.096670743	-0.90176379	0.1251028	0.12224871	-1.675871	0.082506727	-0.1142019	-1.028824	0.086929888	0.127412	-1.6654124	0.094950957	-0.030517155	-1.0157555	0.11820002	0.044119694	NaN	NaN	NaN	-1.0589508	0.041033639	0.054313533	-1.4916869	0.40969599	-0.12742783	-1.1694356	0.44958875	0.13080424	-1.5066275	0.41142094	-0.0078185458	-1.1777374	0.4257693	0.00055423348	-1.3841793	0.78017345	-0.1866246	-1.3593991	0.76900247	0.16210721	-1.2971717	0.81793041	-0.14766288	-1.2757125	0.82264658	0.099160338	-1.4626792	0.90258683	-0.0014715401	-1.3147097	1.3116015	-0.18584604	-1.3452047	1.2822149	0.17604316	-1.40222	1.3405178	-0.0078688989	-1.3207781	0.99078699	-0.26931369	-1.4714973	0.98573506	0.21082301	-1.1165669	0.85537128	-0.2191267	-1.3635411	0.7719345	0.25122916
9	0.032	-1.5601183	0.031391666	-0.09669635	-0.89180402	0.12683028	0.12182096	-1.6748779	0.083622077	-0.11451498	-1.0184428	0.087240401	0.1270812	-1.6647596	0.096070272	-0.030738124	-1.0057674	0.11878076	0.043801002	NaN	NaN	NaN	-1.0482184	0.041056557	0.05403615	-1.4872451	0.4090178	-0.12757078	-1.1624106	0.44868558	0.13090718	-1.5017221	0.41059663	-0.0079354019	-1.1709149	0.42463675	0.00037907472	-1.3789627	0.77900733	-0.18613241	-1.3522729	0.7673948	0.16231384	-1.2913577	0.81660222	-0.14783043	-1.2687689	0.82105863	0.099083474	-1.4562697	0.90132741	-0.00038961669	-1.3086469	1.3102498	-0.18535459	-1.3392794	1.280725	0.17663724	-1.396046	1.3392707	-0.0072806565	-1.3134822	0.98917216	-0.26856816	-1.4646301	0.984067	0.21194495	-1.1089648	0.85469882	-0.2179864	-1.3584826	0.77021409	0.25183453
10	0.036	-1.5600606	0.031382418	-0.096729821	-0.88237298	0.12790851	0.12115821	-1.6737567	0.0848255	-0.1149064	-1.0086775	0.087331983	0.12662918	-1.6639101	0.097324776	-0.031056362	-0.99637317	0.11912073	0.04336018	NaN	NaN	NaN	-1.0382506	0.040963472	0.053618741	-1.4826242	0.40834483	-0.12771133	-1.155241	0.4478005	0.13106429	-1.4966678	0.40977788	-0.008071989	-1.1640057	0.42363793	0.00025405745	-1.3736079	0.77785374	-0.18564529	-1.3451684	0.76589458	0.16253611	-1.285486	0.81537183	-0.14797464	-1.2617563	0.81952656	0.098992775	-1.4498182	0.90009327	0.00052995157	-1.3025483	1.3089636	-0.18482759	-1.3332826	1.2792939	0.17723906	-1.3898516	1.3380629	-0.006693898	-1.3062352	0.98763844	-0.2677511	-1.4579117	0.98252756	0.21279403	-1.101431	0.85402162	-0.2168643	-1.35332	0.76857287	0.25245969
11	0.04	-1.5599793	0.031377782	-0.096777413	-0.87347207	0.12836106	0.12031053	-1.6725903	0.086117784	-0.11533056	-0.99955271	0.087191645	0.12606019	-1.6627632	0.098717868	-0.031512032	-0.98758194	0.1191828	0.042794168	NaN	NaN	NaN	-1.0290748	0.040714892	0.053077975	-1.4778246	0.40768239	-0.12785201	-1.1479234	0.44693499	0.13124096	-1.4913543	0.4089435	-0.0082470632	-1.1570089	0.42279484	0.00016602882	-1.3681224	0.77672551	-0.18511477	-1.3380942	0.76452604	0.16276552	-1.2795885	0.81424321	-0.14812751	-1.2546398	0.81806631	0.098888396	-1.443311	0.89889913	0.0013537688	-1.2964159	1.3077434	-0.18427311	-1.3272159	1.2779362	0.17785462	-1.3836415	1.336887	-0.0061328871	-1.2990413	0.98619635	-0.26685485	-1.4517233	0.98111935	0.21287708	-1.0939719	0.8533417	-0.2157644	-1.3480471	0.76701865	0.25310765
12	0.044	-1.5598752	0.031375748	-0.096839469	-0.86512843	0.12823654	0.11931687	-1.6715428	0.087509121	-0.11571989	-0.99108776	0.086796445	0.12537809	-1.6615708	0.10019096	-0.03202573	-0.97940829	0.11892551	0.042095377	NaN	NaN	NaN	-1.0207078	0.040274506	0.052432495	-1.4728499	0.40702421	-0.12800177	-1.1404872	0.44609999	0.13138744	-1.4857155	0.40808542	-0.0084608698	-1.1499228	0.42213473	0.00010189948	-1.3625032	0.7756329	-0.18454926	-1.3310773	0.76330342	0.16300484	-1.2736186	0.81320326	-0.14823547	-1.2474108	0.81668909	0.098768808	-1.4367687	0.89777272	0.0022015292	-1.290241	1.3065957	-0.18367993	-1.3210714	1.2766599	0.17849229	-1.3774067	1.335743	-0.0055775533	-1.2919118	0.98485623	-0.26589173	-1.4460883	0.97986803	0.21221656	-1.0865979	0.85266837	-0.2146919	-1.3426525	0.76555556	0.2537769
13	0.048	-1.5597538	0.031377316	-0.096910892	-0.85738429	0.12759323	0.11817195	-1.6706337	0.089013654	-0.11606634	-0.98329154	0.086121934	0.12458432	-1.6610383	0.10161032	-0.03235789	-0.97187017	0.11832364	0.041259717	NaN	NaN	NaN	-1.0131424	0.039608738	0.051696486	-1.4676942	0.40635488	-0.12816342	-1.1329682	0.44531068	0.13146078	-1.4798758	0.40719667	-0.0086805468	-1.1427441	0.42167883	4.9261475e-05	-1.3567466	0.77458254	-0.18396382	-1.3241187	0.76222796	0.16327135	-1.2674683	0.81223665	-0.14818822	-1.2400854	0.81540362	0.098635917	-1.4302715	0.89676067	0.0032102885	-1.2840101	1.3055263	-0.18303313	-1.3148396	1.2754636	0.1791569	-1.3711316	1.3346421	-0.0049793922	-1.2848588	0.98362187	-0.26488048	-1.4405616	0.97875023	0.21150077	-1.0793152	0.8520038	-0.21365369	-1.3371311	0.76418806	0.25446424
14	0.052	-1.5596181	0.031385618	-0.096985112	-0.85026894	0.12647699	0.11685975	-1.6695931	0.090628607	-0.1164587	-0.97615778	0.085155603	0.12368415	-1.6618451	0.10284182	-0.032265178	-0.96498416	0.11737048	0.040289234	NaN	NaN	NaN	-1.0063555	0.038686745	0.050887788	-1.4623351	0.40566192	-0.12832307	-1.1253713	0.44458551	0.13143856	-1.4740067	0.4062683	-0.0088734559	-1.1354705	0.42143257	8.318529e-07	-1.3508516	0.77357407	-0.18335575	-1.3171589	0.7612914	0.16356802	-1.2610745	0.81132729	-0.14793157	-1.232681	0.81422351	0.098497886	-1.4239692	0.8959052	0.0044048668	-1.2777212	1.3045331	-0.18233785	-1.3085162	1.2743418	0.17984887	-1.3648091	1.3335954	-0.0043145202	-1.2778862	0.98249082	-0.26382728	-1.4346627	0.97771918	0.21143805	-1.0721206	0.85133792	-0.21265674	-1.331487	0.76291967	0.25516987
15	0.056	-1.5594682	0.031403197	-0.097058164	-0.84378806	0.12492668	0.11536991	-1.6681649	0.092333983	-0.11697904	-0.96967408	0.0839079	0.12267467	-1.6636407	0.10394131	-0.03183575	-0.95875497	0.11607568	0.03919423	NaN	NaN	NaN	-1.0003236	0.037493721	0.050034162	-1.4567373	0.4049417	-0.12846039	-1.1177175	0.44393195	0.13130481	-1.468137	0.40530245	-0.0090352397	-1.128109	0.42138303	-4.1131412e-05	-1.3448186	0.77259885	-0.18271559	-1.310075	0.76049394	0.16388118	-1.2544934	0.81045723	-0.14754482	-1.2251976	0.81316533	0.0983718	-1.4179838	0.89518785	0.0056466924	-1.2713866	1.3036104	-0.18160975	-1.3020918	1.2732872	0.18056642	-1.3584366	1.3326077	-0.0035863793	-1.2709908	0.98145855	-0.26273294	-1.4282925	0.97674892	0.21211042	-1.0650099	0.85066321	-0.21170379	-1.3257193	0.76174573	0.25589703
